<?xml version="1.0" encoding="UTF-8" standalone="no"?>
<!-- Created with Inkscape (http://www.inkscape.org/) -->

<svg
   width="320"
   height="320"
   viewBox="0 0 84.666665 84.666669"
   version="1.1"
   id="svg5"
   inkscape:export-filename="C:\Users\Anonymous\Desktop\bitmap.png"
   inkscape:export-xdpi="96"
   inkscape:export-ydpi="96"
   inkscape:version="1.1 (c68e22c387, 2021-05-23)"
   sodipodi:docname="drawing.svg"
   xmlns:inkscape="http://www.inkscape.org/namespaces/inkscape"
   xmlns:sodipodi="http://sodipodi.sourceforge.net/DTD/sodipodi-0.dtd"
   xmlns="http://www.w3.org/2000/svg"
   xmlns:svg="http://www.w3.org/2000/svg">
  <sodipodi:namedview
     id="namedview7"
     pagecolor="#505050"
     bordercolor="#eeeeee"
     borderopacity="1"
     inkscape:pageshadow="0"
     inkscape:pageopacity="0"
     inkscape:pagecheckerboard="0"
     inkscape:document-units="px"
     showgrid="false"
     units="px"
     inkscape:snap-bbox="true"
     inkscape:bbox-paths="true"
     inkscape:bbox-nodes="true"
     inkscape:snap-bbox-edge-midpoints="true"
     inkscape:snap-bbox-midpoints="true"
     inkscape:object-paths="true"
     inkscape:snap-intersection-paths="true"
     inkscape:snap-smooth-nodes="true"
     inkscape:snap-midpoints="true"
     inkscape:zoom="0.70710678"
     inkscape:cx="-4.2426407"
     inkscape:cy="66.468037"
     inkscape:window-width="1024"
     inkscape:window-height="745"
     inkscape:window-x="-8"
     inkscape:window-y="-8"
     inkscape:window-maximized="1"
     inkscape:current-layer="layer1"
     inkscape:snap-global="false" />
  <defs
     id="defs2" />
  <g
     inkscape:label="Layer 1"
     inkscape:groupmode="layer"
     id="layer1">
    <path
       id="rect1256"
       style="fill:#daddfc;fill-opacity:1;stroke-width:5.00001;stroke-linecap:round;stroke-linejoin:round"
       d="M 160 2 C 153.1446 2 147.625 7.5196 147.625 14.375 L 147.625 41.951172 C 147.625 48.806573 153.1446 54.326172 160 54.326172 C 166.8554 54.326172 172.375 48.806573 172.375 41.951172 L 172.375 14.375 C 172.375 7.5196 166.8554 2 160 2 z M 140.29492 3.25 C 140.19018 3.2526395 140.08478 3.2599977 139.97852 3.2734375 C 138.27822 3.488474 137.08182 5.0301738 137.29688 6.7304688 L 138.16211 13.570312 C 138.37715 15.270607 139.91884 16.466989 141.61914 16.251953 C 143.31943 16.036917 144.5158 14.495217 144.30078 12.794922 L 143.43555 5.9550781 C 143.23395 4.361052 141.86611 3.210407 140.29492 3.25 z M 181.4707 3.5 C 179.96563 3.5153651 178.6649 4.6223148 178.44727 6.1601562 L 177.48047 12.986328 C 177.24031 14.683257 178.4144 16.242262 180.11133 16.482422 C 181.80826 16.722581 183.36726 15.550445 183.60742 13.853516 L 184.57422 7.0273438 C 184.81438 5.3304153 183.64029 3.7714095 181.94336 3.53125 C 181.78427 3.5087351 181.6264 3.4984105 181.4707 3.5 z M 128.64453 5.2050781 C 128.43865 5.2054291 128.23133 5.2264342 128.02148 5.2695312 C 126.34268 5.6143054 125.26851 7.2430739 125.61328 8.921875 L 127 15.675781 C 127.34478 17.354583 128.97354 18.428757 130.65234 18.083984 C 132.33114 17.73921 133.40532 16.110442 133.06055 14.431641 L 131.67383 7.6777344 C 131.37215 6.2087834 130.08573 5.2026212 128.64453 5.2050781 z M 194.20703 5.84375 C 192.82796 5.8798666 191.60126 6.8382929 191.2793 8.2480469 L 189.74414 14.970703 C 189.36256 16.641523 190.40145 18.292247 192.07227 18.673828 C 193.74308 19.05541 195.39576 18.018476 195.77734 16.347656 L 197.3125 9.6269531 C 197.69408 7.9561336 196.65519 6.3034569 194.98438 5.921875 C 194.72331 5.8622529 194.46242 5.8370617 194.20703 5.84375 z M 116.73438 8.1386719 C 116.47902 8.1464601 116.22016 8.1874048 115.96289 8.2617188 C 114.31637 8.7373284 113.374 10.445274 113.84961 12.091797 L 115.76172 18.714844 C 116.23733 20.361367 117.94527 21.303734 119.5918 20.828125 C 121.23832 20.352515 122.18264 18.64457 121.70703 16.998047 L 119.79297 10.375 C 119.39167 8.985746 118.11328 8.0966155 116.73438 8.1386719 z M 206.38477 9.1035156 C 205.06486 9.0969683 203.84436 9.9394872 203.42578 11.267578 L 201.35352 17.84375 C 200.83833 19.478324 201.73847 21.209429 203.37305 21.724609 C 205.00762 22.23979 206.73873 21.337699 207.25391 19.703125 L 209.32617 13.128906 C 209.84135 11.494332 208.93926 9.7632275 207.30469 9.2480469 C 206.9982 9.1514506 206.68936 9.1050265 206.38477 9.1035156 z M 104.92383 12.107422 C 104.57047 12.111739 104.20998 12.177779 103.85938 12.310547 C 102.25661 12.917488 101.45556 14.69606 102.0625 16.298828 L 104.50391 22.746094 C 105.11085 24.348864 106.88942 25.149909 108.49219 24.542969 C 110.09495 23.936028 110.89796 22.157456 110.29102 20.554688 L 107.84961 14.107422 C 107.37544 12.85526 106.1858 12.092004 104.92383 12.107422 z M 217.79492 13.203125 C 216.58929 13.22119 215.45807 13.948842 214.97656 15.140625 L 212.39453 21.53125 C 211.75252 23.120295 212.51447 24.91658 214.10352 25.558594 C 215.69256 26.200607 217.48885 25.438654 218.13086 23.849609 L 220.71289 17.457031 C 221.3549 15.867987 220.59295 14.071701 219.00391 13.429688 C 218.60664 13.269184 218.1968 13.197103 217.79492 13.203125 z M 93.019531 17.232422 C 92.569216 17.23154 92.110661 17.329216 91.675781 17.537109 C 90.129543 18.276287 89.479573 20.115869 90.21875 21.662109 L 93.191406 27.882812 C 93.930584 29.429054 95.772117 30.077068 97.318359 29.337891 C 98.864609 28.598713 99.514568 26.759131 98.775391 25.212891 L 95.800781 18.994141 C 95.269498 17.882781 94.170336 17.234674 93.019531 17.232422 z M 228.73047 18.060547 C 227.57976 18.045779 226.46954 18.677869 225.92188 19.78125 L 222.85742 25.957031 C 222.09546 27.492171 222.71681 29.341551 224.25195 30.103516 C 225.78709 30.86548 227.63647 30.242171 228.39844 28.707031 L 231.46289 22.533203 C 232.22485 20.998064 231.6035 19.148683 230.06836 18.386719 C 229.6366 18.172416 229.18075 18.066326 228.73047 18.060547 z M 83.169922 22.923828 C 82.076086 22.908759 80.963106 23.184263 79.947266 23.78125 C 76.992095 25.517942 76.011354 29.294829 77.748047 32.25 L 84.734375 44.138672 C 86.471064 47.093843 90.247954 48.07458 93.203125 46.337891 C 96.158296 44.601198 97.139033 40.824308 95.402344 37.869141 L 88.416016 25.980469 C 87.276311 24.041138 85.258154 22.952597 83.169922 22.923828 z M 239.38867 24.388672 C 237.30027 24.378265 235.26182 25.430045 234.08594 27.347656 L 226.87695 39.101562 C 225.08514 42.023636 225.9959 45.819511 228.91797 47.611328 C 231.84004 49.403142 235.63396 48.49239 237.42578 45.570312 L 244.63477 33.816406 C 246.42658 30.894332 245.51582 27.098456 242.59375 25.306641 C 241.58929 24.690704 240.4826 24.394123 239.38867 24.388672 z M 71.111328 30.003906 C 70.516047 30.013497 69.915634 30.196541 69.388672 30.564453 C 67.983436 31.545553 67.641946 33.465859 68.623047 34.871094 L 72.570312 40.525391 C 73.551414 41.930623 75.471717 42.27016 76.876953 41.289062 C 78.282189 40.307961 78.623675 38.387656 77.642578 36.982422 L 73.697266 31.330078 C 73.08408 30.451807 72.103463 29.987921 71.111328 30.003906 z M 252.36914 32.552734 C 251.42809 32.554001 250.50043 32.98469 249.89258 33.800781 L 245.77539 39.330078 C 244.75163 40.704545 245.03374 42.634446 246.4082 43.658203 C 247.78267 44.68196 249.71257 44.399857 250.73633 43.025391 L 254.85547 37.496094 C 255.87923 36.121625 255.59517 34.191726 254.2207 33.167969 C 253.66233 32.752067 253.01302 32.551868 252.36914 32.552734 z M 61.701172 37.189453 C 61.008596 37.187161 60.310538 37.417471 59.730469 37.892578 C 58.404599 38.978538 58.212872 40.92022 59.298828 42.246094 L 63.666016 47.580078 C 64.751972 48.905952 66.693662 49.099632 68.019531 48.013672 C 69.345405 46.927715 69.539082 44.986026 68.453125 43.660156 L 64.083984 38.326172 C 63.473134 37.58037 62.591627 37.1924 61.701172 37.189453 z M 262.43164 40.734375 C 261.59132 40.745614 260.75942 41.099231 260.15625 41.78125 L 255.58984 46.945312 C 254.45445 48.229112 254.57362 50.177115 255.85742 51.3125 C 257.14122 52.447889 259.08922 52.328722 260.22461 51.044922 L 264.79102 45.880859 C 265.9264 44.59706 265.80723 42.649057 264.52344 41.513672 C 263.92166 40.98146 263.1731 40.724459 262.43164 40.734375 z M 52.503906 45.285156 C 51.762659 45.305474 51.026853 45.592138 50.447266 46.148438 C 49.210835 47.335213 49.17065 49.285031 50.357422 50.521484 L 55.130859 55.496094 C 56.317631 56.732559 58.26941 56.772709 59.505859 55.585938 C 60.742294 54.399162 60.782479 52.447387 59.595703 51.210938 L 54.822266 46.238281 C 54.191791 45.581427 53.343986 45.26213 52.503906 45.285156 z M 271.42773 49.384766 C 270.68651 49.405803 269.95014 49.693136 269.37109 50.25 L 264.40234 55.029297 C 263.16707 56.217278 263.12843 58.169007 264.31641 59.404297 C 265.50438 60.639571 267.45416 60.676262 268.68945 59.488281 L 273.66016 54.710938 C 274.89546 53.522956 274.93212 51.571231 273.74414 50.335938 C 273.11303 49.679682 272.26779 49.360924 271.42773 49.384766 z M 43.892578 54.316406 C 43.052247 54.326823 42.221025 54.679898 41.617188 55.361328 C 40.48054 56.644017 40.598167 58.591876 41.880859 59.728516 L 47.039062 64.300781 C 48.321751 65.437429 50.26961 65.319802 51.40625 64.037109 C 52.542898 62.754421 52.425267 60.806562 51.142578 59.669922 L 45.982422 55.097656 C 45.38116 54.564853 44.634047 54.307215 43.892578 54.316406 z M 279.625 58.478516 C 278.93242 58.4769 278.23585 58.707921 277.65625 59.183594 L 272.32617 63.556641 C 271.00136 64.643894 270.80923 66.585345 271.89648 67.910156 C 272.98374 69.234968 274.92714 69.427097 276.25195 68.339844 L 281.58008 63.964844 C 282.90489 62.877591 283.09702 60.936139 282.00977 59.611328 C 281.39819 58.866122 280.51546 58.480593 279.625 58.478516 z M 35.738281 64.408203 C 34.797231 64.408552 33.868418 64.838802 33.259766 65.654297 C 32.234667 67.027766 32.515204 68.959276 33.888672 69.984375 L 39.414062 74.107422 C 40.787528 75.13252 42.719042 74.851985 43.744141 73.478516 C 44.769239 72.105047 44.488703 70.175489 43.115234 69.150391 L 37.589844 65.025391 C 37.031872 64.608944 36.382158 64.407964 35.738281 64.408203 z M 286.75977 67.939453 C 286.16449 67.949625 285.56567 68.131573 285.03906 68.5 L 279.39062 72.453125 C 277.98635 73.435594 277.64643 75.357443 278.62891 76.761719 C 279.61138 78.165995 281.53322 78.505911 282.9375 77.523438 L 288.58594 73.570312 C 289.99021 72.587839 290.33013 70.665995 289.34766 69.261719 C 288.73361 68.384046 287.75188 67.9225 286.75977 67.939453 z M 30.609375 74.447266 C 28.520971 74.436861 26.482519 75.488639 25.306641 77.40625 C 23.514825 80.328324 24.425581 84.122245 27.347656 85.914062 L 39.101562 93.123047 C 42.02364 94.91486 45.819511 94.004105 47.611328 91.082031 C 49.403142 88.159958 48.49239 84.366036 45.570312 82.574219 L 33.816406 75.365234 C 32.811943 74.749298 31.703301 74.452716 30.609375 74.447266 z M 290.97266 76.890625 C 289.87882 76.875555 288.76584 77.15106 287.75 77.748047 L 275.86133 84.734375 C 272.90615 86.471064 271.92542 90.247954 273.66211 93.203125 C 275.3988 96.158296 279.17569 97.139033 282.13086 95.402344 L 294.01953 88.416016 C 296.9747 86.679323 297.95544 82.90244 296.21875 79.947266 C 295.07905 78.007937 293.06089 76.919395 290.97266 76.890625 z M 21.263672 88.076172 C 20.112975 88.060281 19.003817 88.690123 18.455078 89.792969 C 17.691615 91.327362 18.311309 93.177945 19.845703 93.941406 L 26.019531 97.011719 C 27.553926 97.775183 29.402553 97.155487 30.166016 95.621094 C 30.929479 94.0867 30.309785 92.236121 28.775391 91.472656 L 22.603516 88.402344 C 22.171967 88.18762 21.713945 88.08239 21.263672 88.076172 z M 299.75 90.048828 C 299.29969 90.047506 298.84133 90.146047 298.40625 90.353516 L 292.18359 93.320312 C 290.63664 94.057982 289.98499 95.898352 290.72266 97.445312 C 291.46032 98.992266 293.29874 99.643919 294.8457 98.90625 L 301.06836 95.9375 C 302.61531 95.199834 303.26697 93.361414 302.5293 91.814453 C 301.9991 90.702578 300.9008 90.052206 299.75 90.048828 z M 16.308594 98.919922 C 15.102946 98.936809 13.970955 99.662202 13.488281 100.85352 C 12.844716 102.44193 13.604943 104.23925 15.193359 104.88281 L 21.583984 107.4707 C 23.1724 108.11427 24.969717 107.35404 25.613281 105.76562 C 26.256846 104.17721 25.494666 102.37989 23.90625 101.73633 L 17.517578 99.148438 C 17.120474 98.987546 16.710476 98.914293 16.308594 98.919922 z M 304.82031 102.00195 C 304.46696 102.00593 304.10855 102.0707 303.75781 102.20312 L 297.30859 104.63672 C 295.70523 105.2421 294.90048 107.02164 295.50586 108.625 C 296.11123 110.22837 297.89078 111.03116 299.49414 110.42578 L 305.94336 107.99023 C 307.54673 107.38486 308.34952 105.60726 307.74414 104.00391 C 307.27119 102.75127 306.0823 101.98777 304.82031 102.00195 z M 12.255859 110.38477 C 10.935961 110.37693 9.7148023 111.21919 9.2949219 112.54688 C 8.7781456 114.18094 9.6764772 115.91291 11.310547 116.42969 L 17.884766 118.50781 C 19.518835 119.02459 21.250802 118.12626 21.767578 116.49219 C 22.284354 114.85812 21.38407 113.12615 19.75 112.60938 L 13.175781 110.53125 C 12.869393 110.43435 12.560451 110.38657 12.255859 110.38477 z M 308.72461 113.87109 C 308.46925 113.87863 308.21047 113.91812 307.95312 113.99219 L 301.32812 115.90039 C 299.68114 116.37439 298.73694 118.08153 299.21094 119.72852 C 299.68494 121.3755 301.39208 122.31971 303.03906 121.8457 L 309.66406 119.93945 C 311.31105 119.46545 312.25525 117.75636 311.78125 116.10938 C 311.38131 114.71973 310.10356 113.83038 308.72461 113.87109 z M 8.8867188 122.46289 C 7.5076097 122.49766 6.280367 123.4558 5.9570312 124.86523 C 5.5738189 126.53568 6.6088511 128.18905 8.2792969 128.57227 L 15 130.11328 C 16.670446 130.4965 18.323819 129.45951 18.707031 127.78906 C 19.090244 126.11862 18.053258 124.4672 16.382812 124.08398 L 9.6640625 122.54102 C 9.4030554 122.48114 9.1421093 122.45645 8.8867188 122.46289 z M 311.73633 125.69531 C 311.53044 125.69546 311.32122 125.71687 311.11133 125.75977 L 304.35547 127.14062 C 302.67633 127.48376 301.60217 129.11188 301.94531 130.79102 C 302.28845 132.47015 303.91657 133.54432 305.5957 133.20117 L 312.34961 131.82227 C 314.02875 131.47913 315.10486 129.85101 314.76172 128.17188 C 314.46147 126.70263 313.17753 125.69426 311.73633 125.69531 z M 6.5800781 135.24609 C 5.0749952 135.25999 3.7718801 136.36667 3.5527344 137.9043 C 3.3109184 139.60099 4.4829948 141.16053 6.1796875 141.40234 L 13.003906 142.375 C 14.700599 142.61681 16.262092 141.44669 16.503906 139.75 C 16.745722 138.05331 15.573646 136.49181 13.876953 136.25 L 7.0527344 135.27734 C 6.8936694 135.25467 6.7357764 135.24466 6.5800781 135.24609 z M 313.60742 137.42383 C 313.50267 137.42637 313.3973 137.43393 313.29102 137.44727 L 306.45117 138.30469 C 304.75067 138.51806 303.55223 140.05926 303.76562 141.75977 C 303.979 143.46027 305.5202 144.65675 307.2207 144.44336 L 314.0625 143.58594 C 315.763 143.37256 316.95949 141.83136 316.74609 140.13086 C 316.54605 138.53664 315.17865 137.38576 313.60742 137.42383 z M 14.375 147.625 C 7.5196 147.625 2 153.1446 2 160 C 2 166.8554 7.5196 172.375 14.375 172.375 L 41.951172 172.375 C 48.806573 172.375 54.326172 166.8554 54.326172 160 C 54.326172 153.1446 48.806573 147.625 41.951172 147.625 L 14.375 147.625 z M 278.04883 147.625 C 271.19343 147.625 265.67383 153.1446 265.67383 160 C 265.67383 166.8554 271.19343 172.375 278.04883 172.375 L 305.625 172.375 C 312.4804 172.375 318 166.8554 318 160 C 318 153.1446 312.4804 147.625 305.625 147.625 L 278.04883 147.625 z M 13.095703 175.53125 C 12.990955 175.53379 12.885578 175.54135 12.779297 175.55469 L 5.9394531 176.41406 C 4.2389496 176.62744 3.0405298 178.16864 3.2539062 179.86914 C 3.4672827 181.56964 5.0084808 182.76611 6.7089844 182.55273 L 13.548828 181.69531 C 15.249331 181.48194 16.447752 179.94073 16.234375 178.24023 C 16.034334 176.64601 14.666931 175.49318 13.095703 175.53125 z M 306.52344 177.59375 C 305.01836 177.60765 303.71524 178.71237 303.49609 180.25 C 303.25428 181.94669 304.42635 183.50819 306.12305 183.75 L 312.94922 184.72266 C 314.64591 184.96447 316.20545 183.79239 316.44727 182.0957 C 316.68908 180.39901 315.51896 178.83947 313.82227 178.59766 L 306.99609 177.625 C 306.83703 177.60233 306.67914 177.59231 306.52344 177.59375 z M 15.03125 186.73438 C 14.825364 186.73453 14.616142 186.75594 14.40625 186.79883 L 7.6503906 188.17773 C 5.9712543 188.52087 4.897099 190.14899 5.2402344 191.82812 C 5.5833697 193.50726 7.2114886 194.58337 8.890625 194.24023 L 15.644531 192.85938 C 17.323668 192.51624 18.399776 190.88812 18.056641 189.20898 C 17.756397 187.73974 16.472449 186.73332 15.03125 186.73438 z M 304.22461 189.80664 C 302.8455 189.84141 301.61826 190.79955 301.29492 192.20898 C 300.91171 193.87943 301.94674 195.5328 303.61719 195.91602 L 310.33789 197.45898 C 312.00834 197.8422 313.66171 196.80521 314.04492 195.13477 C 314.42813 193.46432 313.39115 191.81095 311.7207 191.42773 L 305.00195 189.88672 C 304.74095 189.82684 304.48 189.8002 304.22461 189.80664 z M 17.732422 198.0332 C 17.477061 198.04074 17.218279 198.08023 16.960938 198.1543 L 10.335938 200.06055 C 8.6889513 200.53455 7.7447485 202.24169 8.21875 203.88867 C 8.6927519 205.53566 10.399889 206.47986 12.046875 206.00586 L 18.671875 204.09961 C 20.318861 203.62561 21.263064 201.91847 20.789062 200.27148 C 20.389123 198.88184 19.111369 197.99249 17.732422 198.0332 z M 301.19531 201.3457 C 299.87541 201.33787 298.65425 202.18013 298.23438 203.50781 C 297.7176 205.14188 298.61593 206.87385 300.25 207.39062 L 306.82422 209.46875 C 308.45829 209.98552 310.19025 209.08719 310.70703 207.45312 C 311.22381 205.81905 310.32352 204.08709 308.68945 203.57031 L 302.11523 201.49023 C 301.80885 201.39334 301.4999 201.34751 301.19531 201.3457 z M 21.570312 209.37305 C 21.216955 209.37702 20.858547 209.44179 20.507812 209.57422 L 14.056641 212.00977 C 12.453281 212.61514 11.650484 214.39274 12.255859 215.99609 C 12.861235 217.59945 14.638828 218.40225 16.242188 217.79688 L 22.693359 215.36133 C 24.296718 214.75595 25.099516 212.97836 24.494141 211.375 C 24.021191 210.12237 22.832303 209.35886 21.570312 209.37305 z M 297.20703 212.30078 C 296.00138 212.31767 294.87135 213.04306 294.38867 214.23438 C 293.74511 215.82279 294.50534 217.62011 296.09375 218.26367 L 302.48242 220.85156 C 304.07084 221.49513 305.86815 220.7349 306.51172 219.14648 C 307.15528 217.55807 306.39506 215.76075 304.80664 215.11719 L 298.41602 212.5293 C 298.01891 212.36841 297.60891 212.29515 297.20703 212.30078 z M 26.498047 220.79102 C 26.047733 220.78969 25.58938 220.88628 25.154297 221.09375 L 18.931641 224.06055 C 17.38468 224.79822 16.733036 226.63858 17.470703 228.18555 C 18.208371 229.7325 20.046789 230.38415 21.59375 229.64648 L 27.816406 226.67969 C 29.363367 225.94202 30.015012 224.10165 29.277344 222.55469 C 28.747145 221.44281 27.64885 220.79439 26.498047 220.79102 z M 292.64258 222.66016 C 291.49188 222.64426 290.38272 223.27606 289.83398 224.37891 C 289.07052 225.9133 289.69022 227.76388 291.22461 228.52734 L 297.39844 231.59766 C 298.93283 232.36112 300.78146 231.73947 301.54492 230.20508 C 302.30838 228.67068 301.68869 226.82206 300.1543 226.05859 L 293.98242 222.98633 C 293.55087 222.7716 293.09285 222.66637 292.64258 222.66016 z M 41.091797 223.74023 C 39.997961 223.72516 38.884981 224.00067 37.869141 224.59766 L 25.980469 231.58398 C 23.025298 233.32067 22.04456 237.09756 23.78125 240.05273 C 25.517941 243.00791 29.294829 243.98864 32.25 242.25195 L 44.138672 235.26562 C 47.093843 233.52893 48.074584 229.75205 46.337891 226.79688 C 45.198188 224.85755 43.180029 223.769 41.091797 223.74023 z M 277.69336 225.95898 C 275.60495 225.94858 273.56455 227.00036 272.38867 228.91797 C 270.59686 231.84004 271.50761 235.63396 274.42969 237.42578 L 286.18359 244.63477 C 289.10567 246.42658 292.90154 245.51582 294.69336 242.59375 C 296.48517 239.67168 295.57442 235.87775 292.65234 234.08594 L 280.89844 226.87695 C 279.89397 226.26102 278.78729 225.96443 277.69336 225.95898 z M 38.785156 241.91602 C 38.189885 241.92619 37.589103 242.10814 37.0625 242.47656 L 31.414062 246.42969 C 30.009787 247.41216 29.669873 249.33401 30.652344 250.73828 C 31.634815 252.14256 33.556662 252.48052 34.960938 251.49805 L 40.609375 247.54688 C 42.013655 246.5644 42.353563 244.64256 41.371094 243.23828 C 40.757048 242.36061 39.777276 241.89906 38.785156 241.91602 z M 278.73438 245.27539 C 277.79332 245.27574 276.86451 245.70599 276.25586 246.52148 C 275.23076 247.89495 275.5113 249.82451 276.88477 250.84961 L 282.41016 254.97461 C 283.78363 255.99971 285.71514 255.71917 286.74023 254.3457 C 287.76533 252.97223 287.4848 251.04072 286.11133 250.01562 L 280.58594 245.89258 C 280.02797 245.47613 279.37825 245.27515 278.73438 245.27539 z M 45.71875 250.95508 C 45.026172 250.95346 44.329605 251.18448 43.75 251.66016 L 38.419922 256.0332 C 37.095112 257.12046 36.904933 259.06386 37.992188 260.38867 C 39.07944 261.71348 41.020892 261.90366 42.345703 260.81641 L 47.673828 256.44336 C 48.998639 255.35611 49.190769 253.41466 48.103516 252.08984 C 47.491936 251.34464 46.609208 250.95715 45.71875 250.95508 z M 270.87109 254.91797 C 270.03076 254.92839 269.19759 255.28146 268.59375 255.96289 C 267.4571 257.24558 267.57473 259.19344 268.85742 260.33008 L 274.01758 264.90234 C 275.30027 266.03899 277.24813 265.92136 278.38477 264.63867 C 279.52141 263.35598 279.40378 261.40812 278.12109 260.27148 L 272.96094 255.69922 C 272.35968 255.16641 271.61256 254.90878 270.87109 254.91797 z M 53.367188 259.64453 C 52.62596 259.66557 51.889589 259.95485 51.310547 260.51172 L 46.341797 265.28906 C 45.106523 266.47704 45.067878 268.42877 46.255859 269.66406 C 47.443837 270.89933 49.393613 270.93798 50.628906 269.75 L 55.599609 264.9707 C 56.834918 263.78273 56.871575 261.831 55.683594 260.5957 C 55.052481 259.93946 54.207245 259.62068 53.367188 259.64453 z M 262.55273 263.55078 C 261.81149 263.5711 261.07373 263.85776 260.49414 264.41406 C 259.25771 265.60083 259.21753 267.55066 260.4043 268.78711 L 265.17969 273.76172 C 266.36646 274.99819 268.31628 275.03833 269.55273 273.85156 C 270.78917 272.66479 270.82935 270.71302 269.64258 269.47656 L 264.86914 264.50391 C 264.23867 263.84705 263.39282 263.52775 262.55273 263.55078 z M 160 265.67383 C 153.1446 265.67383 147.625 271.19343 147.625 278.04883 L 147.625 305.625 C 147.625 312.4804 153.1446 318 160 318 C 166.8554 318 172.375 312.4804 172.375 305.625 L 172.375 278.04883 C 172.375 271.19343 166.8554 265.67383 160 265.67383 z M 62.052734 267.9082 C 61.212413 267.91944 60.380517 268.27306 59.777344 268.95508 L 55.208984 274.11914 C 54.073599 275.40294 54.192767 277.35094 55.476562 278.48633 C 56.760362 279.62171 58.708365 279.50255 59.84375 278.21875 L 64.412109 273.05273 C 65.547495 271.76894 65.426378 269.82289 64.142578 268.6875 C 63.540797 268.15529 62.794194 267.89829 62.052734 267.9082 z M 253.95117 271.2832 C 253.2586 271.28091 252.56054 271.51122 251.98047 271.98633 C 250.6546 273.07229 250.46091 275.01397 251.54688 276.33984 L 255.91602 281.67383 C 257.00197 282.9997 258.94366 283.19338 260.26953 282.10742 C 261.5954 281.02146 261.78908 279.07978 260.70312 277.75391 L 256.33398 272.41992 C 255.72313 271.67412 254.84163 271.28615 253.95117 271.2832 z M 87.876953 271.4707 C 85.788549 271.4603 83.750096 272.51208 82.574219 274.42969 L 75.365234 286.18359 C 73.573417 289.10567 74.484176 292.90154 77.40625 294.69336 C 80.328324 296.48518 84.122249 295.57442 85.914062 292.65234 L 93.123047 280.89844 C 94.914864 277.97636 94.004105 274.18049 91.082031 272.38867 C 90.077568 271.77274 88.970879 271.47615 87.876953 271.4707 z M 230.01953 272.80469 C 228.9257 272.78962 227.81271 273.06513 226.79688 273.66211 C 223.84172 275.39879 222.86098 279.17571 224.59766 282.13086 L 231.58398 294.01953 C 233.32066 296.97468 237.09758 297.95543 240.05273 296.21875 C 243.00788 294.48207 243.98863 290.70515 242.25195 287.75 L 235.26562 275.86133 C 234.12593 273.92201 232.10775 272.83346 230.01953 272.80469 z M 71.740234 275.72461 C 70.799184 275.72588 69.871528 276.15852 69.263672 276.97461 L 65.146484 282.50195 C 64.122728 283.87642 64.404826 285.80827 65.779297 286.83203 C 67.153764 287.85579 69.083665 287.57369 70.107422 286.19922 L 74.226562 280.66992 C 75.250319 279.29545 74.968221 277.3636 73.59375 276.33984 C 73.035373 275.92394 72.384111 275.72374 71.740234 275.72461 z M 244.8457 278.15039 C 244.25042 278.15998 243.65001 278.34107 243.12305 278.70898 C 241.71781 279.69009 241.37632 281.61234 242.35742 283.01758 L 246.30469 288.66992 C 247.28578 290.07516 249.20609 290.41664 250.61133 289.43555 C 252.01656 288.45445 252.35805 286.53414 251.37695 285.12891 L 247.42969 279.47461 C 246.8165 278.59634 245.83784 278.13441 244.8457 278.15039 z M 94.259766 289.57227 C 93.163464 289.61161 92.125413 290.23561 91.601562 291.29102 L 88.537109 297.4668 C 87.775145 299.00194 88.396502 300.85132 89.931641 301.61328 C 91.466779 302.37525 93.316161 301.75389 94.078125 300.21875 L 97.144531 294.04297 C 97.906495 292.50783 97.283185 290.65845 95.748047 289.89648 C 95.268316 289.65837 94.758085 289.55438 94.259766 289.57227 z M 224.02539 290.35547 C 223.57508 290.35459 223.11847 290.45226 222.68359 290.66016 C 221.13734 291.39933 220.48739 293.24087 221.22656 294.78711 L 224.19922 301.00586 C 224.9384 302.55211 226.77798 303.20207 228.32422 302.46289 C 229.87047 301.72371 230.52043 299.88413 229.78125 298.33789 L 226.80859 292.11719 C 226.27731 291.00584 225.1762 290.35773 224.02539 290.35547 z M 104.6875 294.21289 C 103.48187 294.23096 102.3526 294.95861 101.87109 296.15039 L 99.287109 302.54297 C 98.645096 304.13201 99.407048 305.92635 100.99609 306.56836 C 102.58514 307.21037 104.38142 306.44842 105.02344 304.85938 L 107.60742 298.4668 C 108.24944 296.87775 107.48553 295.08342 105.89648 294.44141 C 105.49922 294.2809 105.08938 294.20687 104.6875 294.21289 z M 212.57031 295.25391 C 212.21696 295.25822 211.85842 295.32231 211.50781 295.45508 C 209.90505 296.06202 209.104 297.84254 209.71094 299.44531 L 212.15234 305.89258 C 212.75928 307.49534 214.53786 308.29639 216.14062 307.68945 C 217.74339 307.08251 218.54444 305.30394 217.9375 303.70117 L 215.49609 297.25391 C 215.02192 296.00175 213.83229 295.23849 212.57031 295.25391 z M 115.70703 298.13086 C 114.38713 298.12431 113.16468 298.96878 112.74609 300.29688 L 110.67383 306.87109 C 110.15865 308.50567 111.06074 310.23677 112.69531 310.75195 C 114.32989 311.26713 116.06099 310.36504 116.57617 308.73047 L 118.64844 302.15625 C 119.16362 300.52168 118.26153 298.79057 116.62695 298.27539 C 116.32047 298.17879 116.01162 298.13237 115.70703 298.13086 z M 201.17969 299.04883 C 200.92433 299.05662 200.66547 299.09756 200.4082 299.17188 C 198.76168 299.64748 197.81931 301.35543 198.29492 303.00195 L 200.20703 309.625 C 200.68264 311.27152 202.39059 312.21389 204.03711 311.73828 C 205.68363 311.26267 206.62796 309.55473 206.15234 307.9082 L 204.23828 301.28516 C 203.83699 299.8959 202.55859 299.00677 201.17969 299.04883 z M 127.30469 301.24609 C 125.86389 301.21197 124.55849 302.19038 124.22461 303.65234 L 122.68945 310.37305 C 122.30787 312.04387 123.34481 313.69654 125.01562 314.07812 C 126.68644 314.45971 128.33912 313.42082 128.7207 311.75 L 130.25586 305.0293 C 130.63744 303.35848 129.59855 301.7058 127.92773 301.32422 C 127.71888 301.27652 127.51052 301.25097 127.30469 301.24609 z M 189.97266 301.85156 C 189.76677 301.85191 189.55751 301.87292 189.34766 301.91602 C 187.66885 302.26079 186.59468 303.88956 186.93945 305.56836 L 188.32812 312.32227 C 188.6729 314.00106 190.30167 315.07524 191.98047 314.73047 C 193.65927 314.3857 194.73344 312.75497 194.38867 311.07617 L 193.00195 304.32422 C 192.70028 302.85527 191.41385 301.84911 189.97266 301.85156 z M 139.41797 303.48438 C 137.9129 303.49974 136.61022 304.60865 136.39258 306.14648 L 135.42773 312.97266 C 135.18758 314.66958 136.35971 316.2286 138.05664 316.46875 C 139.75357 316.70891 141.31258 315.53677 141.55273 313.83984 L 142.51953 307.01367 C 142.75969 305.31674 141.58755 303.75578 139.89062 303.51562 C 139.73154 303.49311 139.57367 303.48279 139.41797 303.48438 z M 178.69727 303.72461 C 178.59252 303.72725 178.48713 303.73461 178.38086 303.74805 C 176.68057 303.96308 175.48416 305.50478 175.69922 307.20508 L 176.56445 314.04492 C 176.77949 315.74522 178.32119 316.94162 180.02148 316.72656 C 181.72178 316.51153 182.91818 314.96982 182.70312 313.26953 L 181.83789 306.42969 C 181.63629 304.83566 180.26846 303.68503 178.69727 303.72461 z "
       transform="scale(0.26458333)" />
  </g>
</svg>
